<?xml version="1.0" encoding="iso-8859-1"?>
<!-- Uploaded to: SVG Repo, www.svgrepo.com, Generator: SVG Repo Mixer Tools -->
<svg version="1.1" id="Layer_1" xmlns="http://www.w3.org/2000/svg" xmlns:xlink="http://www.w3.org/1999/xlink" 
	 viewBox="0 0 392.598 392.598" xml:space="preserve">
<path style="fill:#194F82;" d="M380.574,212.784h-23.596V92.347c20.428-4.978,35.62-23.273,35.62-45.188
	c0-25.665-20.881-46.545-46.545-46.545c-25.665,0-46.545,20.881-46.545,46.545c0,21.915,15.192,40.275,35.685,45.188v120.372
	h-20.299v-35.491c0-6.012-4.848-10.925-10.925-10.925h-63.224V130.36c0-6.012-4.848-10.925-10.925-10.925H68.073
	c-6.012,0-10.925,4.848-10.925,10.925v36.008H10.925C4.913,166.368,0,171.216,0,177.293v203.766c0,6.012,4.848,10.925,10.925,10.925
	h293.107c6.012,0,10.925-4.848,10.925-10.925v-35.491h65.616c6.012,0,10.925-4.848,10.925-10.925V223.644
	C391.434,217.632,386.586,212.784,380.574,212.784z M78.933,141.285h140.089v25.212H78.933V141.285z M146.618,370.263H21.786
	V188.154h124.768v182.044h0.065V370.263z M293.172,370.263H168.404V188.154h124.768V370.263z M321.293,47.16
	c0-13.705,11.119-24.824,24.824-24.824c13.705,0,24.824,11.119,24.824,24.824s-11.119,24.824-24.824,24.824
	C332.412,71.984,321.293,60.865,321.293,47.16z M369.648,323.976h-54.756V234.57h54.756V323.976z"/>
<g>
	<rect x="21.786" y="188.154" style="fill:#FFC10D;" width="124.768" height="181.98"/>
	<rect x="168.339" y="188.154" style="fill:#FFC10D;" width="124.768" height="181.98"/>
</g>
<path style="fill:#194F82;" d="M85.075,318.028c-7.758,0-13.964-6.271-13.964-13.964c0-6.012-4.848-10.925-10.925-10.925
	s-10.925,4.849-10.925,10.925c0,15.903,10.408,29.349,24.824,34.004v5.883c0,6.012,4.848,10.925,10.925,10.925
	c6.077,0,10.925-4.848,10.925-10.925v-5.883c14.352-4.655,24.824-18.101,24.824-34.004c0-19.717-17.39-35.62-37.042-35.62
	c0.323,0,0.065,0-0.065,0c-7.046-0.711-12.606-6.659-12.606-13.899c0-7.758,6.271-13.964,13.964-13.964s13.964,6.271,13.964,13.964
	c0,6.012,4.848,10.925,10.925,10.925s10.925-4.848,10.925-10.925c0-15.903-10.408-29.349-24.824-34.004v-5.947
	c0-6.012-4.848-10.925-10.925-10.925c-6.077,0-10.925,4.848-10.925,10.925v5.947c-14.352,4.655-24.824,18.101-24.824,34.004
	c0,19.717,15.968,35.685,35.685,35.685c-0.323,0,0,0,0.065,0c7.046,0.711,13.899,6.594,13.899,13.834
	C98.974,311.758,92.703,318.028,85.075,318.028z"/>
<path d="M229.883,268.315C229.883,268.315,229.947,268.315,229.883,268.315C230.206,268.25,229.947,268.315,229.883,268.315z"/>
<path style="fill:#194F82;" d="M229.947,318.028c-7.758,0-13.964-6.271-13.964-13.964c0-6.012-4.848-10.925-10.925-10.925
	c-6.012,0-10.925,4.849-10.925,10.925c0,15.903,10.408,29.349,24.824,34.004v5.883c0,6.012,4.848,10.925,10.925,10.925
	c6.012,0,10.925-4.848,10.925-10.925v-5.883c14.352-4.655,24.824-18.101,24.824-34.004c0-19.717-15.968-35.685-35.685-35.685
	c-0.129,0-0.129,0-0.065,0c-7.046-0.711-13.899-6.594-13.899-13.834c0-7.758,6.271-13.964,13.964-13.964
	c7.693,0,13.964,6.271,13.964,13.964c0,6.012,4.848,10.925,10.925,10.925c6.012,0,10.925-4.848,10.925-10.925
	c0-15.903-10.408-29.349-24.824-34.004v-5.947c0-6.012-4.848-10.925-10.925-10.925c-6.012,0-10.925,4.848-10.925,10.925v5.947
	c-14.352,4.655-24.824,18.101-24.824,34.004c0,19.717,15.968,35.685,35.685,35.685c0.129,0,0.129,0,0.065,0
	c7.046,0.711,13.899,6.594,13.899,13.834C243.911,311.758,237.64,318.028,229.947,318.028z"/>
<path d="M230.012,290.166C229.947,290.166,229.947,290.166,230.012,290.166C229.624,290.295,229.883,290.166,230.012,290.166z"/>
<g>
	<rect x="314.893" y="234.57" style="fill:#56ACE0;" width="54.756" height="89.406"/>
	<path style="fill:#56ACE0;" d="M346.117,71.984c13.705,0,24.824-11.119,24.824-24.824s-11.119-24.824-24.824-24.824
		c-13.705,0-24.824,11.119-24.824,24.824C321.293,60.865,332.412,71.984,346.117,71.984z"/>
</g>
<rect x="78.933" y="141.285" style="fill:#FFFFFF;" width="140.089" height="25.212"/>
</svg>